<mxfile host="app.diagrams.net" agent="Mozilla/5.0 (X11; Linux x86_64) AppleWebKit/537.36 (KHTML, like Gecko) Chrome/129.0.0.0 Safari/537.36" version="24.7.16">
  <diagram name="Page-1" id="DWUx_tRH7NIHmu86fIoj">
    <mxGraphModel dx="1434" dy="820" grid="1" gridSize="10" guides="1" tooltips="1" connect="1" arrows="1" fold="1" page="1" pageScale="1" pageWidth="850" pageHeight="1100" math="0" shadow="0">
      <root>
        <mxCell id="0" />
        <mxCell id="1" parent="0" />
        <mxCell id="FTBoBfg9ZKaS-vHJGrUH-1" value="Employee" style="rounded=0;whiteSpace=wrap;html=1;" vertex="1" parent="1">
          <mxGeometry x="245" y="400" width="120" height="60" as="geometry" />
        </mxCell>
        <mxCell id="FTBoBfg9ZKaS-vHJGrUH-2" value="id" style="ellipse;whiteSpace=wrap;html=1;" vertex="1" parent="1">
          <mxGeometry x="145" y="350" width="60" height="40" as="geometry" />
        </mxCell>
        <mxCell id="FTBoBfg9ZKaS-vHJGrUH-4" value="name" style="ellipse;whiteSpace=wrap;html=1;" vertex="1" parent="1">
          <mxGeometry x="95" y="410" width="60" height="40" as="geometry" />
        </mxCell>
        <mxCell id="FTBoBfg9ZKaS-vHJGrUH-5" value="position" style="ellipse;whiteSpace=wrap;html=1;" vertex="1" parent="1">
          <mxGeometry x="155" y="450" width="60" height="40" as="geometry" />
        </mxCell>
        <mxCell id="FTBoBfg9ZKaS-vHJGrUH-7" value="" style="endArrow=none;html=1;rounded=0;exitX=1;exitY=0;exitDx=0;exitDy=0;entryX=0;entryY=0.5;entryDx=0;entryDy=0;" edge="1" parent="1" source="FTBoBfg9ZKaS-vHJGrUH-5" target="FTBoBfg9ZKaS-vHJGrUH-1">
          <mxGeometry width="50" height="50" relative="1" as="geometry">
            <mxPoint x="435" y="620" as="sourcePoint" />
            <mxPoint x="485" y="570" as="targetPoint" />
          </mxGeometry>
        </mxCell>
        <mxCell id="FTBoBfg9ZKaS-vHJGrUH-8" value="" style="endArrow=none;html=1;rounded=0;exitX=1;exitY=0.5;exitDx=0;exitDy=0;entryX=0;entryY=0.5;entryDx=0;entryDy=0;" edge="1" parent="1" source="FTBoBfg9ZKaS-vHJGrUH-4" target="FTBoBfg9ZKaS-vHJGrUH-1">
          <mxGeometry width="50" height="50" relative="1" as="geometry">
            <mxPoint x="435" y="620" as="sourcePoint" />
            <mxPoint x="485" y="570" as="targetPoint" />
          </mxGeometry>
        </mxCell>
        <mxCell id="FTBoBfg9ZKaS-vHJGrUH-9" value="" style="endArrow=none;html=1;rounded=0;exitX=0.933;exitY=0.675;exitDx=0;exitDy=0;exitPerimeter=0;entryX=0;entryY=0.5;entryDx=0;entryDy=0;" edge="1" parent="1" source="FTBoBfg9ZKaS-vHJGrUH-2" target="FTBoBfg9ZKaS-vHJGrUH-1">
          <mxGeometry width="50" height="50" relative="1" as="geometry">
            <mxPoint x="435" y="620" as="sourcePoint" />
            <mxPoint x="485" y="570" as="targetPoint" />
          </mxGeometry>
        </mxCell>
        <mxCell id="FTBoBfg9ZKaS-vHJGrUH-10" value="Department" style="rounded=0;whiteSpace=wrap;html=1;" vertex="1" parent="1">
          <mxGeometry x="595" y="400" width="120" height="60" as="geometry" />
        </mxCell>
        <mxCell id="FTBoBfg9ZKaS-vHJGrUH-11" value="name" style="ellipse;whiteSpace=wrap;html=1;" vertex="1" parent="1">
          <mxGeometry x="755" y="350" width="60" height="40" as="geometry" />
        </mxCell>
        <mxCell id="FTBoBfg9ZKaS-vHJGrUH-12" value="" style="endArrow=none;html=1;rounded=0;entryX=0;entryY=1;entryDx=0;entryDy=0;exitX=1;exitY=0.5;exitDx=0;exitDy=0;" edge="1" parent="1" source="FTBoBfg9ZKaS-vHJGrUH-10" target="FTBoBfg9ZKaS-vHJGrUH-11">
          <mxGeometry width="50" height="50" relative="1" as="geometry">
            <mxPoint x="435" y="620" as="sourcePoint" />
            <mxPoint x="485" y="570" as="targetPoint" />
          </mxGeometry>
        </mxCell>
        <mxCell id="FTBoBfg9ZKaS-vHJGrUH-13" value="Assigned" style="rhombus;whiteSpace=wrap;html=1;" vertex="1" parent="1">
          <mxGeometry x="435" y="260" width="80" height="80" as="geometry" />
        </mxCell>
        <mxCell id="FTBoBfg9ZKaS-vHJGrUH-14" value="" style="endArrow=none;html=1;rounded=0;exitX=0;exitY=0.5;exitDx=0;exitDy=0;entryX=1;entryY=0;entryDx=0;entryDy=0;" edge="1" parent="1" source="FTBoBfg9ZKaS-vHJGrUH-13" target="FTBoBfg9ZKaS-vHJGrUH-1">
          <mxGeometry width="50" height="50" relative="1" as="geometry">
            <mxPoint x="435" y="620" as="sourcePoint" />
            <mxPoint x="485" y="570" as="targetPoint" />
          </mxGeometry>
        </mxCell>
        <mxCell id="FTBoBfg9ZKaS-vHJGrUH-15" value="" style="endArrow=none;html=1;rounded=0;entryX=1;entryY=0.5;entryDx=0;entryDy=0;exitX=0;exitY=0;exitDx=0;exitDy=0;" edge="1" parent="1" source="FTBoBfg9ZKaS-vHJGrUH-10" target="FTBoBfg9ZKaS-vHJGrUH-13">
          <mxGeometry width="50" height="50" relative="1" as="geometry">
            <mxPoint x="435" y="620" as="sourcePoint" />
            <mxPoint x="485" y="570" as="targetPoint" />
          </mxGeometry>
        </mxCell>
        <mxCell id="FTBoBfg9ZKaS-vHJGrUH-16" value="Manages" style="rhombus;whiteSpace=wrap;html=1;" vertex="1" parent="1">
          <mxGeometry x="435" y="500" width="80" height="80" as="geometry" />
        </mxCell>
        <mxCell id="FTBoBfg9ZKaS-vHJGrUH-17" value="" style="endArrow=none;html=1;rounded=0;exitX=1;exitY=1;exitDx=0;exitDy=0;entryX=0;entryY=0.5;entryDx=0;entryDy=0;" edge="1" parent="1" source="FTBoBfg9ZKaS-vHJGrUH-1" target="FTBoBfg9ZKaS-vHJGrUH-16">
          <mxGeometry width="50" height="50" relative="1" as="geometry">
            <mxPoint x="435" y="620" as="sourcePoint" />
            <mxPoint x="485" y="570" as="targetPoint" />
          </mxGeometry>
        </mxCell>
        <mxCell id="FTBoBfg9ZKaS-vHJGrUH-18" value="" style="endArrow=none;html=1;rounded=0;exitX=0;exitY=1;exitDx=0;exitDy=0;entryX=1;entryY=0.5;entryDx=0;entryDy=0;" edge="1" parent="1" source="FTBoBfg9ZKaS-vHJGrUH-10" target="FTBoBfg9ZKaS-vHJGrUH-16">
          <mxGeometry width="50" height="50" relative="1" as="geometry">
            <mxPoint x="435" y="620" as="sourcePoint" />
            <mxPoint x="485" y="570" as="targetPoint" />
          </mxGeometry>
        </mxCell>
        <mxCell id="FTBoBfg9ZKaS-vHJGrUH-19" value="1" style="ellipse;whiteSpace=wrap;html=1;aspect=fixed;" vertex="1" parent="1">
          <mxGeometry x="405" y="470" width="30" height="30" as="geometry" />
        </mxCell>
        <mxCell id="FTBoBfg9ZKaS-vHJGrUH-20" value="1" style="ellipse;whiteSpace=wrap;html=1;aspect=fixed;" vertex="1" parent="1">
          <mxGeometry x="525" y="470" width="30" height="30" as="geometry" />
        </mxCell>
        <mxCell id="FTBoBfg9ZKaS-vHJGrUH-22" value="M" style="ellipse;whiteSpace=wrap;html=1;aspect=fixed;" vertex="1" parent="1">
          <mxGeometry x="365" y="310" width="30" height="30" as="geometry" />
        </mxCell>
        <mxCell id="FTBoBfg9ZKaS-vHJGrUH-25" value="1" style="ellipse;whiteSpace=wrap;html=1;aspect=fixed;" vertex="1" parent="1">
          <mxGeometry x="565" y="310" width="30" height="30" as="geometry" />
        </mxCell>
        <mxCell id="FTBoBfg9ZKaS-vHJGrUH-26" value="Meeting Room" style="rounded=0;whiteSpace=wrap;html=1;" vertex="1" parent="1">
          <mxGeometry x="245" y="690" width="120" height="60" as="geometry" />
        </mxCell>
        <mxCell id="FTBoBfg9ZKaS-vHJGrUH-27" value="size" style="ellipse;whiteSpace=wrap;html=1;" vertex="1" parent="1">
          <mxGeometry x="125" y="640" width="60" height="40" as="geometry" />
        </mxCell>
        <mxCell id="FTBoBfg9ZKaS-vHJGrUH-28" value="maximum occupancy" style="ellipse;whiteSpace=wrap;html=1;" vertex="1" parent="1">
          <mxGeometry x="125" y="740" width="60" height="40" as="geometry" />
        </mxCell>
        <mxCell id="FTBoBfg9ZKaS-vHJGrUH-30" value="" style="endArrow=none;html=1;rounded=0;exitX=1;exitY=1;exitDx=0;exitDy=0;entryX=0;entryY=0.5;entryDx=0;entryDy=0;" edge="1" parent="1" source="FTBoBfg9ZKaS-vHJGrUH-27" target="FTBoBfg9ZKaS-vHJGrUH-26">
          <mxGeometry width="50" height="50" relative="1" as="geometry">
            <mxPoint x="435" y="620" as="sourcePoint" />
            <mxPoint x="485" y="570" as="targetPoint" />
          </mxGeometry>
        </mxCell>
        <mxCell id="FTBoBfg9ZKaS-vHJGrUH-31" value="" style="endArrow=none;html=1;rounded=0;entryX=1;entryY=0.5;entryDx=0;entryDy=0;exitX=0;exitY=0.5;exitDx=0;exitDy=0;" edge="1" parent="1" source="FTBoBfg9ZKaS-vHJGrUH-26" target="FTBoBfg9ZKaS-vHJGrUH-28">
          <mxGeometry width="50" height="50" relative="1" as="geometry">
            <mxPoint x="435" y="620" as="sourcePoint" />
            <mxPoint x="485" y="570" as="targetPoint" />
          </mxGeometry>
        </mxCell>
        <mxCell id="FTBoBfg9ZKaS-vHJGrUH-32" value="Combined" style="rhombus;whiteSpace=wrap;html=1;" vertex="1" parent="1">
          <mxGeometry x="265" y="800" width="80" height="80" as="geometry" />
        </mxCell>
        <mxCell id="FTBoBfg9ZKaS-vHJGrUH-33" value="" style="endArrow=none;html=1;rounded=0;exitX=0;exitY=1;exitDx=0;exitDy=0;entryX=0;entryY=0.5;entryDx=0;entryDy=0;" edge="1" parent="1" source="FTBoBfg9ZKaS-vHJGrUH-26" target="FTBoBfg9ZKaS-vHJGrUH-32">
          <mxGeometry width="50" height="50" relative="1" as="geometry">
            <mxPoint x="435" y="620" as="sourcePoint" />
            <mxPoint x="485" y="570" as="targetPoint" />
          </mxGeometry>
        </mxCell>
        <mxCell id="FTBoBfg9ZKaS-vHJGrUH-34" value="" style="endArrow=none;html=1;rounded=0;entryX=1;entryY=0.5;entryDx=0;entryDy=0;exitX=1;exitY=1;exitDx=0;exitDy=0;" edge="1" parent="1" source="FTBoBfg9ZKaS-vHJGrUH-26" target="FTBoBfg9ZKaS-vHJGrUH-32">
          <mxGeometry width="50" height="50" relative="1" as="geometry">
            <mxPoint x="435" y="620" as="sourcePoint" />
            <mxPoint x="485" y="570" as="targetPoint" />
          </mxGeometry>
        </mxCell>
        <mxCell id="FTBoBfg9ZKaS-vHJGrUH-35" value="1" style="ellipse;whiteSpace=wrap;html=1;aspect=fixed;" vertex="1" parent="1">
          <mxGeometry x="225" y="790" width="30" height="30" as="geometry" />
        </mxCell>
        <mxCell id="FTBoBfg9ZKaS-vHJGrUH-36" value="1" style="ellipse;whiteSpace=wrap;html=1;aspect=fixed;" vertex="1" parent="1">
          <mxGeometry x="355" y="790" width="30" height="30" as="geometry" />
        </mxCell>
        <mxCell id="FTBoBfg9ZKaS-vHJGrUH-38" value="Timeslot" style="rounded=0;whiteSpace=wrap;html=1;" vertex="1" parent="1">
          <mxGeometry x="115" y="540" width="120" height="60" as="geometry" />
        </mxCell>
        <mxCell id="FTBoBfg9ZKaS-vHJGrUH-39" value="Occupies" style="rhombus;whiteSpace=wrap;html=1;" vertex="1" parent="1">
          <mxGeometry x="265" y="530" width="80" height="80" as="geometry" />
        </mxCell>
        <mxCell id="FTBoBfg9ZKaS-vHJGrUH-40" value="occasion" style="ellipse;whiteSpace=wrap;html=1;" vertex="1" parent="1">
          <mxGeometry x="45" y="540" width="60" height="40" as="geometry" />
        </mxCell>
        <mxCell id="FTBoBfg9ZKaS-vHJGrUH-41" value="expected number of people" style="ellipse;whiteSpace=wrap;html=1;" vertex="1" parent="1">
          <mxGeometry x="35" y="590" width="80" height="50" as="geometry" />
        </mxCell>
        <mxCell id="FTBoBfg9ZKaS-vHJGrUH-42" value="" style="endArrow=none;html=1;rounded=0;exitX=1;exitY=0;exitDx=0;exitDy=0;entryX=0;entryY=0.5;entryDx=0;entryDy=0;" edge="1" parent="1" source="FTBoBfg9ZKaS-vHJGrUH-41" target="FTBoBfg9ZKaS-vHJGrUH-38">
          <mxGeometry width="50" height="50" relative="1" as="geometry">
            <mxPoint x="435" y="620" as="sourcePoint" />
            <mxPoint x="485" y="570" as="targetPoint" />
          </mxGeometry>
        </mxCell>
        <mxCell id="FTBoBfg9ZKaS-vHJGrUH-43" value="" style="endArrow=none;html=1;rounded=0;exitX=1;exitY=0.5;exitDx=0;exitDy=0;entryX=0;entryY=0.5;entryDx=0;entryDy=0;" edge="1" parent="1" source="FTBoBfg9ZKaS-vHJGrUH-40" target="FTBoBfg9ZKaS-vHJGrUH-38">
          <mxGeometry width="50" height="50" relative="1" as="geometry">
            <mxPoint x="435" y="620" as="sourcePoint" />
            <mxPoint x="485" y="570" as="targetPoint" />
          </mxGeometry>
        </mxCell>
        <mxCell id="FTBoBfg9ZKaS-vHJGrUH-44" value="" style="endArrow=none;html=1;rounded=0;exitX=0.5;exitY=0;exitDx=0;exitDy=0;entryX=0.5;entryY=1;entryDx=0;entryDy=0;" edge="1" parent="1" source="FTBoBfg9ZKaS-vHJGrUH-26" target="FTBoBfg9ZKaS-vHJGrUH-39">
          <mxGeometry width="50" height="50" relative="1" as="geometry">
            <mxPoint x="435" y="620" as="sourcePoint" />
            <mxPoint x="485" y="570" as="targetPoint" />
          </mxGeometry>
        </mxCell>
        <mxCell id="FTBoBfg9ZKaS-vHJGrUH-45" value="" style="endArrow=none;html=1;rounded=0;exitX=1;exitY=0.5;exitDx=0;exitDy=0;" edge="1" parent="1" source="FTBoBfg9ZKaS-vHJGrUH-38">
          <mxGeometry width="50" height="50" relative="1" as="geometry">
            <mxPoint x="435" y="620" as="sourcePoint" />
            <mxPoint x="265" y="570" as="targetPoint" />
          </mxGeometry>
        </mxCell>
        <mxCell id="FTBoBfg9ZKaS-vHJGrUH-46" value="" style="endArrow=none;html=1;rounded=0;exitX=0.5;exitY=1;exitDx=0;exitDy=0;entryX=0.5;entryY=0;entryDx=0;entryDy=0;" edge="1" parent="1" source="FTBoBfg9ZKaS-vHJGrUH-1" target="FTBoBfg9ZKaS-vHJGrUH-39">
          <mxGeometry width="50" height="50" relative="1" as="geometry">
            <mxPoint x="435" y="620" as="sourcePoint" />
            <mxPoint x="485" y="570" as="targetPoint" />
          </mxGeometry>
        </mxCell>
        <mxCell id="FTBoBfg9ZKaS-vHJGrUH-47" value="M" style="ellipse;whiteSpace=wrap;html=1;aspect=fixed;" vertex="1" parent="1">
          <mxGeometry x="315" y="630" width="30" height="30" as="geometry" />
        </mxCell>
        <mxCell id="FTBoBfg9ZKaS-vHJGrUH-48" value="M" style="ellipse;whiteSpace=wrap;html=1;aspect=fixed;" vertex="1" parent="1">
          <mxGeometry x="235" y="540" width="30" height="30" as="geometry" />
        </mxCell>
        <mxCell id="FTBoBfg9ZKaS-vHJGrUH-49" value="M" style="ellipse;whiteSpace=wrap;html=1;aspect=fixed;" vertex="1" parent="1">
          <mxGeometry x="305" y="480" width="30" height="30" as="geometry" />
        </mxCell>
        <mxCell id="FTBoBfg9ZKaS-vHJGrUH-50" value="Parking Space" style="rounded=0;whiteSpace=wrap;html=1;" vertex="1" parent="1">
          <mxGeometry x="245" y="170" width="120" height="60" as="geometry" />
        </mxCell>
        <mxCell id="FTBoBfg9ZKaS-vHJGrUH-52" value="plate number" style="ellipse;whiteSpace=wrap;html=1;" vertex="1" parent="1">
          <mxGeometry x="275" y="90" width="60" height="40" as="geometry" />
        </mxCell>
        <mxCell id="FTBoBfg9ZKaS-vHJGrUH-54" value="" style="endArrow=none;html=1;rounded=0;exitX=0.5;exitY=1;exitDx=0;exitDy=0;entryX=0.5;entryY=0;entryDx=0;entryDy=0;" edge="1" parent="1" source="FTBoBfg9ZKaS-vHJGrUH-52" target="FTBoBfg9ZKaS-vHJGrUH-50">
          <mxGeometry width="50" height="50" relative="1" as="geometry">
            <mxPoint x="435" y="380" as="sourcePoint" />
            <mxPoint x="485" y="330" as="targetPoint" />
          </mxGeometry>
        </mxCell>
        <mxCell id="FTBoBfg9ZKaS-vHJGrUH-55" value="assigned" style="rhombus;whiteSpace=wrap;html=1;" vertex="1" parent="1">
          <mxGeometry x="265" y="270" width="80" height="80" as="geometry" />
        </mxCell>
        <mxCell id="FTBoBfg9ZKaS-vHJGrUH-56" value="" style="endArrow=none;html=1;rounded=0;exitX=0.5;exitY=1;exitDx=0;exitDy=0;entryX=0.5;entryY=0;entryDx=0;entryDy=0;" edge="1" parent="1" source="FTBoBfg9ZKaS-vHJGrUH-50" target="FTBoBfg9ZKaS-vHJGrUH-55">
          <mxGeometry width="50" height="50" relative="1" as="geometry">
            <mxPoint x="435" y="380" as="sourcePoint" />
            <mxPoint x="485" y="330" as="targetPoint" />
          </mxGeometry>
        </mxCell>
        <mxCell id="FTBoBfg9ZKaS-vHJGrUH-57" value="" style="endArrow=none;html=1;rounded=0;exitX=0.5;exitY=1;exitDx=0;exitDy=0;entryX=0.5;entryY=0;entryDx=0;entryDy=0;" edge="1" parent="1" source="FTBoBfg9ZKaS-vHJGrUH-55" target="FTBoBfg9ZKaS-vHJGrUH-1">
          <mxGeometry width="50" height="50" relative="1" as="geometry">
            <mxPoint x="435" y="380" as="sourcePoint" />
            <mxPoint x="485" y="330" as="targetPoint" />
          </mxGeometry>
        </mxCell>
        <mxCell id="FTBoBfg9ZKaS-vHJGrUH-58" value="1" style="ellipse;whiteSpace=wrap;html=1;aspect=fixed;" vertex="1" parent="1">
          <mxGeometry x="265" y="355" width="30" height="30" as="geometry" />
        </mxCell>
        <mxCell id="FTBoBfg9ZKaS-vHJGrUH-60" value="1" style="ellipse;whiteSpace=wrap;html=1;aspect=fixed;" vertex="1" parent="1">
          <mxGeometry x="265" y="240" width="30" height="30" as="geometry" />
        </mxCell>
      </root>
    </mxGraphModel>
  </diagram>
</mxfile>
